<svg width="21" height="21" viewBox="0 0 21 21" fill="none" xmlns="http://www.w3.org/2000/svg">
<path d="M19.9273 0.0106848C19.7112 0.0515837 19.5113 0.197497 19.3611 0.424116C18.987 0.960937 16.0928 5.22814 13.1523 9.56176C10.4891 13.4868 8.22987 16.8208 7.54958 17.8156L1.53953 11.2439C1.43988 11.1326 1.32584 11.0508 1.204 11.0033C1.08216 10.9557 0.954952 10.9434 0.82976 10.9669C0.704569 10.9905 0.583883 11.0495 0.474703 11.1405C0.365523 11.2315 0.270022 11.3527 0.193739 11.4971C0.117457 11.6415 0.0619115 11.8062 0.0303254 11.9816C-0.00126074 12.157 -0.00825883 12.3397 0.00973655 12.519C0.0277319 12.6984 0.070363 12.8708 0.135157 13.0263C0.19995 13.1818 0.285616 13.3173 0.387187 13.425L7.06282 20.7237C7.24697 20.9232 7.47528 21.0201 7.70543 20.9965C7.93559 20.9729 8.15197 20.8304 8.3145 20.5954C8.68858 20.0586 11.5828 15.8056 14.5232 11.472C17.4637 7.13835 20.4504 2.72412 20.7121 2.34855C20.8552 2.14836 20.9508 1.88873 20.9855 1.60633C21.0202 1.32393 20.9922 1.03303 20.9055 0.77468C20.8188 0.516334 20.6777 0.303602 20.5022 0.166519C20.3267 0.0294349 20.1256 -0.0250742 19.9273 0.0106848Z" fill="white"/>
</svg>
