<svg xmlns="http://www.w3.org/2000/svg" width="19.001" height="27.5" viewBox="0 0 19.001 27.5">
  <path id="boy-0105y-svgrepo-com" d="M24,12.25a2.5,2.5,0,1,0,2.5,2.5A2.5,2.5,0,0,0,24,12.25Zm-4.5,2.5a4.5,4.5,0,1,1,6.564,4H27a2.5,2.5,0,0,1,2.08,1.113l4,6a2.5,2.5,0,0,1-3.58,3.388v6a2.5,2.5,0,0,1-5,0v-4h-1v4a2.5,2.5,0,0,1-5,0v-6a2.5,2.5,0,0,1-3.58-3.388l4-6A2.5,2.5,0,0,1,21,18.75h.936A4.5,4.5,0,0,1,19.5,14.75Zm1.5,6a.5.5,0,0,0-.416.223l-4,6a.5.5,0,1,0,.832.555L20.5,22.9V35.25a.5.5,0,0,0,1,0v-6h5v6a.5.5,0,0,0,1,0V22.9l3.084,4.626a.5.5,0,1,0,.832-.555l-4-6A.5.5,0,0,0,27,20.75Z" transform="translate(-14.5 -10.25)" fill="#BFBFBF" fill-rule="evenodd"/>
</svg>
