<svg width="21" height="21" viewBox="0 0 21 21" fill="none" xmlns="http://www.w3.org/2000/svg">
<path d="M20.7053 19.2296L16.812 15.3651C18.3232 13.4795 19.0551 11.0859 18.8572 8.67683C18.659 6.26781 17.5464 4.02611 15.7475 2.41289C13.9487 0.799624 11.6006 -0.062589 9.18623 0.00354111C6.7717 0.0696832 4.47421 1.05902 2.7662 2.76828C1.05823 4.47753 0.06946 6.77651 0.00353965 9.19314C-0.0625527 11.6095 0.799024 13.9592 2.41091 15.7593C4.02296 17.5596 6.26281 18.6732 8.67015 18.8714C11.0774 19.0695 13.469 18.3372 15.3534 16.8248L19.215 20.6895C19.3126 20.7878 19.4286 20.866 19.5564 20.9193C19.6843 20.9725 19.8214 21 19.9601 21C20.0986 21 20.2358 20.9725 20.3637 20.9193C20.4916 20.866 20.6077 20.7878 20.7052 20.6895C20.8944 20.4935 21 20.2319 21 19.9595C21 19.6873 20.8944 19.4255 20.7052 19.2296L20.7053 19.2296ZM9.46643 16.8248C8.01363 16.8248 6.59346 16.3936 5.38561 15.5859C4.17764 14.7781 3.23608 13.6301 2.68012 12.2868C2.12419 10.9435 1.97871 9.46551 2.26215 8.03923C2.54559 6.61331 3.24512 5.3034 4.27248 4.2753C5.29985 3.24716 6.60858 2.54711 8.03358 2.26345C9.45843 1.9798 10.9355 2.12538 12.2776 2.68173C13.62 3.23823 14.767 4.18039 15.5743 5.38926C16.3814 6.59814 16.8122 8.01953 16.8122 9.47355C16.8122 11.4232 16.0382 13.293 14.6607 14.6719C13.2832 16.0505 11.4148 16.8249 9.46631 16.8249L9.46643 16.8248Z" fill="white"/>
</svg>
